<svg width="32" height="32" viewBox="0 0 32 32" fill="none" xmlns="http://www.w3.org/2000/svg">
<path d="M23.3222 15.4879H21.3222V13.4879V2L10.6791 2V13.4879L10.6791 15.4879L8.67907 15.4879H2.15201L15.9341 29.9905C15.9365 29.9927 15.9385 29.9945 15.9401 29.9958C15.9486 29.9973 15.968 30 16.0006 30C16.0333 30 16.0527 29.9973 16.0612 29.9958C16.0628 29.9945 16.0648 29.9927 16.0672 29.9905C16.0672 29.9905 16.0672 29.9905 16.0672 29.9905L29.8493 15.4879L23.3222 15.4879ZM10.6791 1.88787V1.8883C10.6791 1.88801 10.6791 1.88787 10.6791 1.88787Z" fill="#7193FE" stroke="black" stroke-width="4"/>
</svg>
