<svg width="23" height="26" viewBox="0 0 23 26" fill="none" xmlns="http://www.w3.org/2000/svg">
<path d="M21.404 14.5433H15.9033V9.31551H18.9814C19.1904 9.31551 19.3804 9.25989 19.5514 9.14866C19.7224 9.03743 19.8507 8.88913 19.9362 8.70374C20.0217 8.51836 20.0407 8.32371 19.9932 8.11979C19.9457 7.91586 19.8554 7.73975 19.7224 7.59144L12.2268 0.278074C12.0178 0.0926914 11.7708 0 11.4858 0C11.2007 0 10.9537 0.0926914 10.7447 0.278074L3.24907 7.59144C3.11607 7.73975 3.02582 7.91586 2.97831 8.11979C2.93081 8.32371 2.94981 8.51836 3.03532 8.70374C3.12082 8.88913 3.24907 9.03743 3.42007 9.14866C3.59108 9.25989 3.78108 9.31551 3.99009 9.31551H6.98265V14.5433H1.62454C1.16853 14.5433 0.783767 14.6963 0.47026 15.0021C0.156753 15.308 0 15.6742 0 16.1005V24.4428C0 24.8692 0.156753 25.2353 0.47026 25.5412C0.783767 25.8471 1.16853 26 1.62454 26H21.404C21.841 26 22.2162 25.8471 22.5297 25.5412C22.8432 25.2353 23 24.8692 23 24.4428V16.1005C23 15.6742 22.8432 15.308 22.5297 15.0021C22.2162 14.6963 21.841 14.5433 21.404 14.5433ZM1.79554 16.2674H7.01115V24.2759H1.79554V16.2674ZM14.1363 7.59144V24.2759H8.77819V7.59144H5.78563L11.4858 2.02995L17.1859 7.59144H14.1363ZM21.233 24.2759H15.9033V16.2674H21.233V24.2759Z" fill="black"/>
</svg>
