<svg width="38" height="48" viewBox="0 0 38 48" fill="none" xmlns="http://www.w3.org/2000/svg">
<path d="M24.9042 47.2308H12.9089C12.2958 47.2308 11.7693 47.0221 11.3295 46.6048C10.8897 46.1876 10.6697 45.6881 10.6697 45.1064V32.0569H3.15269C2.72619 32.0569 2.32635 31.9431 1.95316 31.7155C1.57997 31.4879 1.30008 31.1781 1.11349 30.7861C0.926896 30.3941 0.866919 29.9895 0.93356 29.5722C1.0002 29.1549 1.18013 28.7945 1.47335 28.491L17.2272 11.9136C17.6803 11.4584 18.2401 11.2308 18.9065 11.2308C19.5729 11.2308 20.1327 11.4584 20.5859 11.9136L36.3397 28.491C36.6329 28.7945 36.8128 29.1549 36.8795 29.5722C36.9461 29.9895 36.8928 30.3941 36.7195 30.7861C36.5463 31.1781 36.2731 31.4879 35.8999 31.7155C35.5267 31.9431 35.1135 32.0569 34.6604 32.0569H27.1433V45.1064C27.1433 45.6881 26.9234 46.1876 26.4836 46.6048C26.0437 47.0221 25.5173 47.2308 24.9042 47.2308ZM13.1488 44.8788H24.6643V29.7049L34.1006 29.667L18.9065 13.6965L3.71247 29.667H13.1488V44.8788Z" fill="#FF4500"/>
<path d="M17.0691 6.36949C18.0583 5.29096 19.7583 5.28899 20.75 6.36523L36.6775 23.6503C37.5291 24.5746 36.8736 26.0702 35.6167 26.0702C35.2228 26.0702 34.8461 25.9091 34.5739 25.6243L18.9073 9.23077L3.33462 25.6204C3.06175 25.9076 2.68297 26.0702 2.28683 26.0702C1.02905 26.0702 0.371495 24.5748 1.22167 23.6479L17.0691 6.36949Z" fill="#FF4500"/>
<path d="M17.0868 0.990786C18.069 -0.0833496 19.7576 -0.0945752 20.754 0.966407L35.8625 17.0536C36.6374 17.8787 36.0524 19.2308 34.9204 19.2308C34.57 19.2308 34.2346 19.0885 33.9911 18.8366L18.9073 3.23077L4.32999 18.8164C4.08273 19.0807 3.73695 19.2308 3.37497 19.2308C2.23794 19.2308 1.64266 17.8798 2.40997 17.0407L17.0868 0.990786Z" fill="#FF4500"/>
</svg>
