<svg width="32" height="32" viewBox="0 0 32 32" fill="none" xmlns="http://www.w3.org/2000/svg">
<path d="M8.67777 16.5121H10.6778V18.5121V30H21.3209V18.5121V16.5121H23.3209H29.848L16.0659 2.00945C16.0635 2.00726 16.0615 2.00551 16.0599 2.00417C16.0514 2.00266 16.032 2 15.9994 2C15.9667 2 15.9473 2.00266 15.9388 2.00417C15.9372 2.00551 15.9352 2.00726 15.9328 2.00946C15.9328 2.00948 15.9328 2.0095 15.9328 2.00952L2.15071 16.5121H8.67777ZM21.3209 30.1121V30.1117C21.3209 30.112 21.3209 30.1121 21.3209 30.1121ZM1.98916 16.5229C1.99095 16.5266 1.99115 16.5265 1.98923 16.5235L1.98903 16.523C1.98867 16.522 1.98847 16.5215 1.98848 16.5215C1.98849 16.5215 1.9887 16.5219 1.98916 16.5229ZM1.98889 16.523L1.94502 16.5439L1.98889 16.523Z" fill="#FF4500" stroke="black" stroke-width="4"/>
</svg>
